<?xml version="1.0" standalone="no"?>
<!DOCTYPE svg PUBLIC "-//W3C//DTD SVG 20010904//EN"
 "http://www.w3.org/TR/2001/REC-SVG-20010904/DTD/svg10.dtd">
<svg version="1.0" xmlns="http://www.w3.org/2000/svg"
 width="16.000000pt" height="16.000000pt" viewBox="0 0 16.000000 16.000000"
 preserveAspectRatio="xMidYMid meet">

<g transform="translate(0.000000,16.000000) scale(0.100000,-0.100000)"
fill="#000000" stroke="none">
<path d="M37 123 c-3 -4 -8 -27 -12 -50 -6 -36 -4 -43 9 -43 10 0 16 9 17 23
l0 22 11 -23 c6 -12 14 -22 18 -22 4 0 12 10 18 22 l11 23 0 -22 c1 -14 7 -23
16 -23 12 0 14 8 9 43 -7 41 -20 60 -36 51 -4 -3 -8 -14 -8 -25 0 -26 -18 -24
-22 3 -3 22 -22 35 -31 21z"/>
</g>
</svg>
